<svg width="1260" height="49" viewBox="0 0 1260 49" fill="none" xmlns="http://www.w3.org/2000/svg">
<g clip-path="url(#clip0_3_64)">
<path d="M539.055 38.0047H534.079V9.7109H540.619C547.728 9.7109 551.425 14.9716 551.425 20.2322C551.425 25.4929 547.586 30.7536 541.33 30.7536H539.055V38.0047ZM539.055 26.0616H541.045C544.6 26.0616 546.306 23.0758 546.306 20.2322C546.306 17.3886 544.458 14.4028 540.477 14.4028H539.055V26.0616ZM565.216 38.4313C558.676 38.4313 554.268 33.8815 554.268 27.0569V9.7109H559.387V26.9147C559.387 31.3223 561.519 33.5972 565.358 33.5972C570.192 33.5972 571.188 29.9005 571.188 26.9147V9.7109H576.306V27.0569C576.164 33.8815 571.756 38.4313 565.216 38.4313ZM593.368 38.0047H579.576V9.7109H584.695V33.1706H593.368V38.0047ZM609.15 38.0047H595.358V9.7109H600.477V33.1706H609.15V38.0047ZM647.112 38.0047H638.439V9.7109H643.699C646.685 9.7109 649.102 9.85308 650.808 10.9905C653.368 12.4123 654.647 14.8294 654.647 17.8152C654.647 19.8057 653.794 21.5118 652.372 22.7915C655.074 24.2133 656.496 26.4882 656.496 29.7583C656.638 34.3081 652.372 38.0047 647.112 38.0047ZM643.415 33.1706H646.117C651.377 33.1706 651.377 30.327 651.377 29.4739C651.377 28.6209 651.377 25.7773 646.259 25.7773H643.415V33.1706ZM643.415 21.2275H645.406C647.254 21.2275 649.529 20.6588 649.529 17.8152C649.529 16.3934 649.102 14.4028 645.121 14.4028H643.273L643.415 21.2275ZM676.543 38.0047H659.197V9.7109H676.543V14.545H664.316V21.2275H675.832V25.9194H664.316V33.1706H676.543V38.0047ZM705.263 38.0047H699.434L696.59 30.6114H686.211L683.368 38.0047H677.965L689.481 9.85308H693.463L705.263 38.0047ZM687.917 25.9194H694.742L691.33 17.3886L687.917 25.9194ZM716.922 33.1706C717.633 34.7346 718.486 36.2986 719.481 37.8626H725.737C724.316 35.7299 722.894 33.0284 721.756 30.7536L719.624 26.4882C720.903 25.7773 722.041 24.782 722.894 23.5024C723.747 22.0806 724.173 20.5166 724.173 18.6682C724.173 13.1232 720.05 9.85308 713.368 9.85308H706.543V38.0047H711.519V28.4787C711.519 28.4787 712.799 28.4787 714.505 28.1943C715.074 29.3318 715.927 31.1801 716.922 33.1706ZM711.519 23.3602V14.545H713.083C717.064 14.545 719.055 15.9668 719.055 18.8104C719.055 22.6493 715.927 23.5024 713.226 23.5024H711.519V23.3602ZM630.477 31.4645C630.477 30.4692 630.619 29.6161 630.903 28.763C631.472 27.1991 632.325 26.0616 633.463 25.9194H633.605V21.2275C630.05 21.2275 627.207 23.6446 626.354 26.9147L618.96 18.8104C618.249 18.0995 617.965 17.3886 617.965 16.6777C617.965 15.9668 618.249 15.2559 618.818 14.6872C619.387 14.1185 620.098 13.8341 620.808 13.8341C621.519 13.8341 622.23 14.1185 622.799 14.6872C623.083 14.9716 623.226 15.2559 623.368 15.5403L627.633 13.4076C627.207 12.6967 626.78 11.9858 626.211 11.2749C624.79 9.85308 622.799 9 620.808 9C618.818 9 616.97 9.7109 615.406 11.2749C613.984 12.6967 613.131 14.6872 613.131 16.6777C613.131 18.5261 613.842 20.5166 615.263 21.9384C612.704 23.5024 610.856 26.346 610.856 29.6161C610.856 34.7346 614.979 39 620.24 39C623.226 39 625.927 37.7204 627.775 35.7299L629.766 37.8626H636.448L630.477 31.4645ZM620.382 34.3081C617.823 34.3081 615.832 32.1754 615.832 29.6161C615.832 27.7678 617.112 26.2038 618.818 25.6351L624.79 32.1754C623.652 33.455 622.088 34.3081 620.382 34.3081Z" fill="#C8CEDD"/>
</g>
<g clip-path="url(#clip1_3_64)">
<path d="M290.712 9.00333C281.326 9.00333 275 15.6011 275 24.0013C275 32.4016 281.326 38.9993 290.712 38.9993C300.099 38.9993 306.424 32.4016 306.424 24.0013C306.424 15.6011 300.099 9.00333 290.712 9.00333ZM290.712 38.0131C284.114 38.0131 279.761 33.3878 279.761 24.0013C279.761 14.6148 284.114 9.98959 290.712 9.98959C297.31 9.98959 301.663 14.6148 301.663 24.0013C301.663 33.3878 297.276 38.0131 290.712 38.0131ZM328.836 10.2617V10.9759C330.673 10.9759 331.489 11.384 331.489 12.6423C331.489 13.6286 330.775 14.8869 327.578 20.0563C325.742 22.845 324.789 24.9536 324.483 25.6678C324.075 24.5455 323.089 22.1648 320.844 18.2538C320.13 16.9955 319.45 16.0092 318.872 15.159C317.749 13.4925 317.341 12.6423 317.341 12.0641C317.341 11.2139 317.749 11.0779 319.178 10.9418V10.2617H315.097C311.016 10.2617 308.363 10.1256 308.363 10.1256V10.8398C311.152 11.2479 312.852 12.3702 317.477 19.8182C320.572 24.8515 320.98 26.552 321.116 28.7966V29.7489C321.116 32.7076 321.116 34.6462 320.844 35.7685C320.572 37.1628 319.722 37.1628 317.885 37.4349V38.1491C318.6 38.1491 320.844 37.877 322.919 37.877C325.163 37.877 327.952 38.1491 327.952 38.1491V37.4349C326.286 37.2989 325.299 37.1628 324.993 35.7685C324.721 34.6462 324.721 32.6736 324.721 29.7489V28.6266C324.857 26.654 325.571 24.8515 328.224 20.6344C332.305 14.0367 334.108 11.52 337.475 10.9759V10.1256C336.76 10.1256 334.38 10.2617 331.727 10.2617H328.836ZM413.927 9.00333C404.541 9.00333 398.215 15.6011 398.215 24.0013C398.215 32.4016 404.541 38.9993 413.927 38.9993C423.314 38.9993 429.639 32.4016 429.639 24.0013C429.639 15.6011 423.314 9.00333 413.927 9.00333ZM413.927 38.0131C407.329 38.0131 402.976 33.3878 402.976 24.0013C402.976 14.6148 407.329 9.98959 413.927 9.98959C420.525 9.98959 424.878 14.6148 424.878 24.0013C424.742 33.3878 420.389 38.0131 413.927 38.0131ZM351.112 22.4709L348.017 20.4984C345.501 18.968 343.664 17.5396 343.664 14.7509C343.664 11.7921 345.773 9.98959 349.004 9.98959C353.629 9.98959 354.615 13.7646 355.023 16.4513H355.567C355.567 16.1792 355.704 15.0569 355.704 13.6626C355.704 11.8261 355.567 10.8738 355.567 10.8738C355.295 10.6018 352.915 9.34342 349.242 9.34342C343.766 9.34342 340.842 12.7103 340.842 16.6214C340.842 19.5801 342.1 22.5049 346.181 24.8856L349.276 26.8581C351.656 28.3885 353.765 29.9529 353.765 32.8777C353.765 36.3806 351.384 38.0811 347.881 38.0811C343.528 38.0811 341.726 35.4284 340.603 30.4971H340.059C340.059 31.3473 339.923 32.1635 339.923 33.5919C339.923 35.2583 340.059 36.6867 340.059 36.6867C340.195 36.8227 342.848 38.9313 347.473 38.9313C353.357 38.9313 356.724 35.7004 356.724 30.9392C356.724 27.3682 355.057 24.9876 351.112 22.4709ZM382.401 10.1256V10.8398C384.237 10.9759 385.053 11.1119 385.359 12.5063C385.631 13.6286 385.631 15.6011 385.631 18.5259V23.0151H370.225V18.3898C370.225 15.431 370.225 13.4925 370.497 12.3702C370.77 10.9759 371.62 10.9759 373.456 10.7038V10.1256C373.456 10.1256 370.667 10.2617 368.423 10.2617C366.314 10.2617 364.07 10.1256 363.39 10.1256V10.8398C365.226 10.9759 366.042 11.1119 366.348 12.5063C366.62 13.6286 366.62 15.6011 366.62 18.5259V29.7489C366.62 32.7076 366.62 34.6462 366.348 35.7685C366.076 37.1628 365.226 37.1628 363.39 37.4349V38.1491C364.104 38.1491 366.348 38.0131 368.423 38.0131C370.667 38.0131 373.456 38.1491 373.456 38.1491V37.4349C371.62 37.1628 370.667 37.0268 370.361 35.5984C370.089 34.4761 370.089 32.5036 370.089 29.5788V24.1374H385.495V29.6128C385.495 32.5716 385.495 34.5101 385.223 35.6324C384.951 37.0268 384.101 37.0268 382.265 37.2989V38.0131C382.979 38.0131 385.223 37.877 387.298 37.877C389.543 37.877 392.331 38.0131 392.331 38.0131V37.2989C390.801 37.1628 389.951 37.0268 389.679 35.6324C389.406 34.5101 389.406 32.5376 389.406 29.6128V18.3898C389.406 15.431 389.406 13.4925 389.679 12.3702C389.951 10.9759 390.801 10.9759 392.637 10.7038V10.1256C392.637 10.1256 389.849 10.2617 387.604 10.2617C385.325 10.2617 383.081 10.1256 382.401 10.1256Z" fill="#C8CEDD"/>
</g>
<path fill-rule="evenodd" clip-rule="evenodd" d="M5.75772 6.09281C5.75772 5.19604 5.90535 5.0459 7.96418 5.0459C11.7876 5.0459 13.5522 7.5881 13.5522 10.4296C13.5522 12.6735 12.6704 14.0197 11.7876 14.6172C10.7582 15.5149 9.43449 15.5149 8.25844 15.5149C6.49387 15.5149 6.05198 15.515 5.90534 15.3658C5.75772 15.2167 5.75772 14.9164 5.75772 14.3189V6.09281ZM2.96472 21.7954C2.96472 25.3845 2.96472 25.8349 0.905881 26.1331L0.169739 26.2822C-0.124521 26.4324 0.023101 27.0309 0.169739 27.0309H8.55172C8.69835 27.0309 8.84598 26.4324 8.55172 26.2822L7.81557 26.1341C5.90436 25.8349 5.75674 25.3855 5.75674 21.7964V17.4596C5.75674 16.712 5.90436 16.5629 7.37468 16.5629C8.84499 16.5629 9.28589 17.0112 9.87441 17.7589C10.9038 19.2542 12.2275 21.6472 13.1093 22.9934C15.61 26.4344 17.3736 27.3312 20.1676 27.3312C20.9037 27.3312 21.3446 27.3312 21.7855 27.181C21.9322 27.0329 21.7855 26.7336 21.6389 26.7336C20.7571 26.5835 19.8743 26.2843 19.2858 25.6857C17.0793 23.7421 15.1681 21.0497 12.5208 16.5629C12.3741 16.2636 12.0799 15.8152 12.3741 15.6661C13.9921 14.9174 16.6384 13.1229 16.6384 9.83304C16.6384 7.43997 15.3148 5.94468 13.6968 5.0469C12.2265 4.15013 10.1677 4 8.10885 4C4.72634 4 2.37324 4.14913 0.461047 4.29926C0.166787 4.44839 0.166787 4.89778 0.461047 5.19603H1.49046C2.96176 5.49529 2.96176 6.09281 2.96176 9.38365V21.7954H2.96472ZM32.5226 26.5815C26.787 26.5815 24.7281 20.8986 24.7281 16.5619C24.7281 9.98117 28.6992 7.88736 31.6398 7.88736C37.2278 7.88736 39.4342 13.271 39.4342 18.0571C39.4342 23.8902 36.0517 26.5815 32.5226 26.5815ZM32.2283 27.4793C37.8163 27.4793 42.2282 23.1425 42.2282 17.1604C42.2282 11.9258 38.8447 6.99058 32.2283 6.99058C26.1984 6.99058 21.7875 11.6266 21.7875 17.4596C21.7875 22.6931 25.7576 27.4793 32.2283 27.4793ZM50.9045 27.4793C48.4047 27.4793 46.7868 26.7326 46.3459 26.2833C45.905 25.6847 45.6107 23.5919 45.4641 22.2448C45.6107 21.9455 46.0526 21.9455 46.1993 22.0956C46.6402 23.5919 47.8172 26.5825 51.1987 26.5825C53.6994 26.5825 54.8755 24.9381 54.8755 23.1425C54.8755 21.7964 54.5812 20.4512 52.5224 18.9549L49.7284 17.1604C48.2581 16.2636 46.4935 14.468 46.4935 12.075C46.4935 9.38265 48.699 6.98958 52.5224 6.98958C53.4052 6.98958 54.4346 7.13871 55.1688 7.43797C55.6106 7.5871 55.9049 7.5871 56.1982 7.5871C56.4925 8.33474 56.7867 9.98016 56.7867 11.1762C56.6401 11.3253 56.1982 11.4755 56.0515 11.3253C55.6107 9.83004 54.8755 7.88536 52.0805 7.88536C49.1389 7.88536 48.5514 9.83003 48.5514 11.1762C48.5514 12.9707 50.0217 14.1678 51.0511 14.9144L53.4052 16.2606C55.1688 17.4566 56.9343 19.2512 56.9343 21.9435C56.9343 25.2363 54.5812 27.4793 50.9045 27.4793ZM64.4345 11.9258C64.4345 8.93426 64.4345 8.48587 62.6699 8.18662H62.229C62.0824 8.03749 62.0824 7.43897 62.229 7.43897H75.0229C75.3172 7.88736 75.4648 9.98217 75.6115 11.3273C75.4648 11.4765 75.0229 11.6266 74.8753 11.3273C74.4344 9.98117 74.1402 8.93427 72.6699 8.63501C72.0813 8.48588 71.0519 8.48588 69.7292 8.48588H67.6704C66.7876 8.48588 66.7876 8.48588 66.7876 9.53278V15.516C66.7876 16.2636 66.9352 16.2636 67.817 16.2636H69.435C70.7586 16.2636 71.6404 16.2636 71.9347 16.1145C72.3756 15.9643 72.5232 15.8152 72.6699 15.0676L72.9641 13.8705C72.9641 13.7214 73.5526 13.7214 73.6993 13.8705C73.6993 14.6182 73.5526 15.8152 73.5526 16.8621C73.5526 17.909 73.6993 19.1051 73.6993 19.7036C73.5526 20.0028 72.9641 20.0028 72.8175 19.7036L72.6689 18.6557C72.5222 18.0571 72.3746 17.6088 71.7871 17.4596C71.3462 17.3105 70.611 17.3105 69.434 17.3105H67.816C66.9342 17.3105 66.7866 17.3105 66.7866 18.0581V22.2458C66.7866 23.8912 66.9342 24.9391 67.3751 25.3865C67.6694 25.6857 68.4046 25.985 70.9043 25.985C73.1107 25.985 73.9925 25.985 74.5811 25.6857C75.1696 25.3865 75.9047 24.3396 76.6399 22.6952C76.9342 22.546 77.2284 22.6952 77.3751 22.9944C77.2284 24.0413 76.4933 26.2843 76.0514 27.0329H61.7872C61.4929 27.0329 61.4929 26.4344 61.6395 26.2843H62.6689C64.2869 26.1361 64.4335 25.6857 64.4335 22.546V11.9258H64.4345ZM77.6693 8.03648C77.5227 7.88736 77.5227 7.43797 77.8159 7.43797H83.9925C84.2867 7.43797 84.2867 7.88635 84.1391 8.03648L83.4039 8.18562C82.8154 8.18562 82.5221 8.33474 82.5221 8.634C82.5221 9.08239 83.1107 10.5777 83.9925 12.6725C85.6104 16.2616 87.374 20.0008 88.9929 23.5899C89.729 22.0936 90.4632 20.4492 91.1994 18.8038C91.4936 18.3554 91.6393 17.7569 91.6393 17.6078C91.7869 17.4586 91.6393 17.3085 91.4936 16.8601C90.4754 14.4887 89.3961 12.1448 88.2568 9.83104C87.8168 8.93327 87.375 8.18562 86.4932 8.18562L85.758 8.03648C85.4638 7.88736 85.6114 7.43797 85.758 7.43797H92.0821C92.2278 7.43797 92.3764 7.88635 92.0821 8.03648L91.346 8.18562C90.3176 8.18562 90.1699 8.48488 90.7575 9.83104C91.346 11.1772 92.2278 13.1209 92.9639 14.9154C93.5525 13.7194 94.14 12.6725 94.7285 11.0271C95.7569 8.48388 95.6103 8.18562 94.7285 8.18562L93.8467 8.03648C93.6991 7.73723 93.6991 7.43797 93.8467 7.43797H99.4347C99.5804 7.43797 99.5804 7.88635 99.4347 8.03648L98.6986 8.18562C97.3759 8.18562 96.934 9.53178 96.1998 10.7278C95.6113 11.9248 94.4352 14.467 93.9934 15.5139C93.8477 15.8132 93.6991 16.1125 93.6991 16.2616L93.9934 16.8601C94.8751 19.103 95.9055 21.347 96.934 23.5899C97.8158 21.4961 98.6986 19.5514 99.4347 17.4586C100.023 15.9623 101.641 12.075 101.788 11.4765C102.23 10.4296 102.67 9.23252 102.67 8.78513C102.67 8.48587 102.375 8.18662 101.788 8.18662L100.906 8.03749C100.612 7.88836 100.612 7.43897 100.906 7.43897H106.347C106.642 7.43897 106.642 7.88736 106.493 8.03749L105.904 8.18662C104.434 8.33574 104.14 9.23352 102.523 13.272L100.316 18.3574C99.1404 21.349 97.9634 24.1904 96.7873 27.3312C96.6397 27.4793 96.4931 27.4793 96.3455 27.4793C96.1998 27.4793 96.0512 27.4793 95.9055 27.3312C95.0238 24.788 93.4048 21.0487 92.3764 18.9549C91.346 21.0487 89.5814 24.9381 88.8472 27.3312C88.6996 27.4793 88.551 27.4793 88.4054 27.4793C88.2577 27.4793 88.1111 27.4793 87.9655 27.3312C87.5236 26.1351 86.3465 23.4418 86.0523 22.545C84.1411 18.5065 82.3765 14.469 80.4643 10.2814C79.8758 9.08439 79.5825 8.33674 78.4054 8.18762L77.6693 8.03648ZM117.376 26.5815C111.64 26.5815 109.581 20.8986 109.581 16.5619C109.581 9.98117 113.552 7.88736 116.493 7.88736C122.081 7.88736 124.287 13.271 124.287 18.0571C124.287 23.8902 120.904 26.5815 117.376 26.5815ZM117.081 27.4793C122.669 27.4793 127.08 23.1425 127.08 17.1604C127.08 11.9258 123.697 6.99058 117.081 6.99058C111.052 6.99058 106.641 11.6266 106.641 17.4596C106.64 22.6931 110.611 27.4793 117.081 27.4793ZM140.61 26.5815C134.875 26.5815 132.816 20.8986 132.816 16.5619C132.816 9.98117 136.787 7.88736 139.728 7.88736C145.316 7.88736 147.52 13.271 147.52 18.0571C147.52 23.8902 144.14 26.5815 140.61 26.5815ZM140.316 27.4793C145.904 27.4793 150.315 23.1425 150.315 17.1604C150.315 11.9258 147.08 6.99058 140.316 6.99058C134.286 6.99058 129.875 11.6266 129.875 17.4596C129.875 22.6931 133.844 27.4793 140.316 27.4793ZM157.815 11.0281C157.815 9.68191 157.815 8.93426 158.11 8.78513C158.404 8.48587 159.286 8.33575 161.05 8.33575C168.55 8.33575 170.167 13.8695 170.167 17.0102C170.167 22.544 167.669 26.2822 161.933 26.2822C160.168 26.2822 158.992 25.983 158.404 25.0862C157.964 24.3386 157.815 23.4408 157.815 21.7954V11.0281ZM155.463 22.544C155.463 25.6847 155.316 25.984 153.699 26.2822H152.962C152.817 26.4324 152.962 27.0309 153.11 27.0309H156.785C157.667 27.0309 159.58 27.179 161.492 27.179C163.697 27.179 166.05 26.8798 167.962 25.8339C171.197 23.8892 172.961 20.7475 172.961 17.0092C172.961 13.1209 171.049 9.68091 167.079 8.33475C165.314 7.5871 163.256 7.43797 160.755 7.43797C158.256 7.43797 155.901 7.43797 153.402 7.5871C153.108 7.73623 153.255 8.18562 153.402 8.33475L154.137 8.48388C155.313 8.63301 155.461 9.23152 155.461 11.3253V22.544H155.463ZM7.81656 37.0516C7.81656 36.1548 7.81656 35.4051 7.66992 35.257C7.46893 35.0695 7.20749 34.963 6.93476 34.9577L6.6405 34.8076C6.49387 34.8076 6.49387 34.6575 6.6405 34.6575H10.023C10.1697 34.6575 10.1697 34.8076 10.023 34.8076L9.87638 34.9577C9.43548 34.9577 9.28786 35.1059 9.14122 35.257C8.99458 35.4051 8.99458 36.1538 8.99458 37.0516V38.696C8.99458 39.1454 8.99458 39.1454 9.5831 39.1454H13.994C14.5826 39.1454 14.7292 39.1454 14.7292 38.696V37.0516C14.7292 36.1548 14.5826 35.4051 14.4359 35.257C14.2893 35.1069 13.994 34.9577 13.8474 34.9577L13.5531 34.8076C13.4065 34.8076 13.4065 34.6575 13.5531 34.6575H16.9357C16.9357 34.6575 17.0823 34.8076 16.9357 34.8076L16.6414 34.9577C16.4948 34.9577 16.0529 35.1059 15.9062 35.257C15.7596 35.4051 15.7596 36.1538 15.7596 37.0516V42.1359C15.7596 43.0327 15.7596 43.7804 15.9062 44.0786C16.0529 44.2288 16.4948 44.2288 16.6414 44.2288L16.9357 44.3769C17.0823 44.3769 17.0823 44.527 16.9357 44.527H13.5531C13.4065 44.527 13.4065 44.3769 13.5531 44.3769L13.8474 44.2288C14.1417 44.2288 14.2893 44.2288 14.4359 43.9295C14.5826 43.7794 14.7292 43.0327 14.7292 42.1349V40.0411C14.7292 39.5917 14.5826 39.5917 13.994 39.5917H9.58212C8.9936 39.5917 8.9936 39.5917 8.9936 40.0411V42.1349C8.9936 43.0317 8.9936 43.7794 9.14023 43.9295C9.28687 44.2288 9.58113 44.2288 9.87539 44.2288L10.3163 44.3769V44.527H6.78616C6.63952 44.527 6.63952 44.3769 6.78616 44.3769H6.93378C7.22804 44.2288 7.52131 44.2288 7.66894 43.9295C7.81557 43.7794 7.81557 43.0327 7.81557 42.1349V37.0516H7.81656ZM25.17 36.0036C27.8174 36.0036 28.6992 38.3967 28.6992 40.4895C28.6992 43.332 27.2279 44.3779 25.4643 44.3779C22.9636 44.3779 22.0818 41.8367 22.0818 39.892C22.0818 36.9014 23.8463 36.0036 25.17 36.0036ZM25.4643 35.7044C22.8169 35.7044 20.9057 37.6491 20.9057 40.3414C20.9057 42.5833 22.5236 44.6771 25.4643 44.6771C27.964 44.6771 29.8752 42.8826 29.8752 40.1913C29.8752 37.7982 28.4049 35.7044 25.4643 35.7044ZM39.7285 35.8555H40.6103C40.7569 35.8555 40.7569 35.7054 40.9046 35.5543H41.0512C40.9045 36.1548 40.7569 37.2007 40.9046 37.4989H40.6103C40.4637 37.0516 40.4637 36.7523 40.316 36.6022C39.8741 36.3029 39.4342 36.1548 38.6981 36.1548H37.8163C37.522 36.1548 37.522 36.1548 37.522 36.7533V42.4362C37.522 43.1828 37.522 43.9315 37.6687 44.0806C37.8153 44.2308 38.1106 44.2308 38.2572 44.3799H38.6981V44.53H35.1689V44.3799L35.7575 44.2318C35.9041 44.2318 36.1984 44.2318 36.346 44.0816C36.4926 43.9335 36.4926 43.1848 36.4926 42.4372V36.7543C36.4926 36.1558 36.4926 36.1558 36.0517 36.1558H35.3166C34.5814 36.1558 33.9929 36.3039 33.6986 36.6032C33.4044 36.9024 33.2577 37.2017 33.1101 37.4999C33.1101 37.4999 32.9635 37.4999 32.8158 37.3518C33.1101 36.9024 33.2567 36.0046 33.4044 35.5553H33.551C33.551 35.7054 33.6976 35.7054 33.8453 35.8565H39.7285V35.8555ZM45.4641 37.9493C45.4641 37.0526 45.4641 36.6022 45.3175 36.454C45.1708 36.3039 45.0232 36.1548 44.7289 36.1548L44.5823 36.0046C44.4357 36.0046 44.4357 35.8565 44.5823 35.8565H50.1703C50.1703 36.1558 50.3179 37.0526 50.3179 37.5009C50.3179 37.5009 50.1703 37.6511 50.1703 37.5009C50.0237 36.9024 49.7294 36.455 49.1409 36.3049C48.8466 36.3049 48.4057 36.1568 47.8172 36.1568H47.082C46.6411 36.1568 46.6411 36.3049 46.6411 36.3049C46.4945 36.455 46.4945 36.7543 46.4945 37.3528V39.4466C46.4945 39.7459 46.4945 39.894 46.9354 39.894H47.6706C48.1115 39.894 48.5524 39.7459 48.8466 39.7459C48.9933 39.7459 48.9933 39.5957 49.1409 39.2965L49.2885 38.698C49.2885 38.698 49.4351 38.698 49.5818 38.8481C49.5818 38.9962 49.4351 39.5947 49.4351 40.0441C49.4351 40.4915 49.5818 41.09 49.5818 41.2402C49.4351 41.3883 49.2885 41.3883 49.2885 41.3883L49.1409 40.7898C48.9942 40.4905 48.9942 40.3424 48.8466 40.3424C48.5524 40.1923 48.1115 40.1923 47.6706 40.1923H46.9354C46.4945 40.1923 46.4945 40.1923 46.4945 40.6417V42.4362C46.4945 43.0347 46.4945 43.6322 46.7888 43.9315C46.9354 44.0796 47.083 44.2308 48.2591 44.2308C49.7294 44.2308 50.3179 44.0806 50.9054 42.7355H51.1997C51.0531 43.1829 50.9054 44.2308 50.6122 44.53H44.288C44.1414 44.53 44.1414 44.3799 44.288 44.3799L44.7289 44.2318C45.0232 44.2318 45.1698 44.0816 45.3175 44.0816C45.4641 43.7824 45.4641 43.1848 45.4641 42.4372V37.9493ZM56.4934 42.4352C56.4934 43.0337 56.4934 43.6312 56.7877 43.9305C56.9343 44.0786 57.0819 44.2298 58.258 44.2298C59.7283 44.2298 60.1692 44.0796 60.7577 42.7345H60.9044C60.9044 43.1819 60.6101 44.2298 60.4635 44.529H54.4336C54.286 44.529 54.286 44.3789 54.4336 44.3789L54.7279 44.2308C55.0221 44.2308 55.3154 44.2308 55.3154 44.0806C55.462 43.7814 55.6097 43.1838 55.6097 42.4362V37.9503C55.6097 37.2017 55.462 36.6032 55.3154 36.3039C55.3154 36.1558 55.0221 36.1558 54.7279 36.1558L54.4336 36.0057C54.286 36.0057 54.286 35.8575 54.4336 35.8575H57.5219C57.6685 35.8575 57.6685 36.0057 57.6685 36.0057L57.3742 36.1558C57.08 36.1558 56.7857 36.1558 56.6391 36.3039C56.4924 36.6032 56.4924 37.2007 56.4924 37.9503V42.4352H56.4934ZM68.4046 35.8555H68.8455C68.9921 36.3029 69.1397 37.0516 69.1397 37.4999H68.8455C68.6988 36.9014 68.2569 36.0046 67.0809 36.0046C65.7572 36.0046 65.4629 37.0526 65.4629 37.4999C65.4629 38.3967 66.1991 38.8471 66.639 39.1464L67.8151 39.893C68.4036 40.3424 69.1387 41.089 69.1387 42.2861C69.1387 43.7814 68.1093 44.6791 66.4914 44.6791C65.462 44.6791 64.8734 44.3799 64.5802 44.2318C64.4335 43.9325 64.2859 43.1838 64.2859 42.4372H64.4325C64.7268 43.1838 65.3143 44.3799 66.7856 44.3799C67.815 44.3799 68.4036 43.6332 68.4036 42.7355C68.4036 42.1369 68.2569 41.5394 67.2275 40.9409L66.1981 40.1923C65.3153 39.7449 64.7268 38.9962 64.7268 37.9503C64.7268 36.7543 65.6086 35.7064 67.2275 35.7064C67.6694 35.7044 68.1103 35.7044 68.4046 35.8555ZM80.4633 39.7439C81.3451 40.3424 82.6688 41.6866 83.1097 42.8836C82.6688 43.4821 81.9336 44.0796 80.9042 44.0796C79.7281 44.0796 78.992 43.0337 78.992 41.9858C78.993 41.088 79.5815 40.3414 80.4633 39.7439ZM80.6109 44.6771C81.6403 44.6771 82.6698 43.9305 83.2573 43.1819C83.5516 43.332 83.8458 44.2298 84.1391 44.3779C84.2857 44.528 84.8743 44.6771 85.4628 44.6771C86.1979 44.6771 86.9331 44.529 87.5216 43.7804C87.5216 43.7804 87.5216 43.6322 87.374 43.6322C87.0807 43.9315 86.6398 44.0796 86.1979 44.0796C85.6104 44.0796 85.0219 43.9315 84.2867 42.8836C84.1048 42.7133 83.9554 42.5104 83.8458 42.2851C84.581 41.2392 85.1695 40.4905 85.3161 40.0431C85.758 39.4446 86.0513 38.9952 86.1979 38.8471C86.3446 38.697 86.4922 38.697 86.6398 38.5478L87.374 38.3977V38.2496H84.581C84.4343 38.3977 84.4343 38.3977 84.581 38.5488H85.0219C85.3161 38.5488 85.3161 38.697 85.3161 38.697C85.3161 38.8471 85.3161 39.1464 85.0219 39.5938C84.7276 40.3424 84.2867 41.089 83.6982 41.9868C82.963 40.6417 82.0803 39.893 81.3451 39.2955C81.786 38.8481 82.5211 38.3987 82.5211 37.6511C82.5211 36.9024 81.786 36.1558 80.9032 36.1558C80.0204 36.1558 79.1386 36.9024 79.1386 37.9503C79.1386 38.5488 79.5805 39.1464 80.1681 39.4456C79.1386 40.1923 78.1092 41.09 78.1092 42.2861C78.1092 43.4821 78.8454 44.6771 80.6109 44.6771ZM81.0518 38.9942C80.4633 38.695 79.8758 38.2476 79.8758 37.4989C79.8758 36.9004 80.3167 36.453 80.7576 36.453C81.4927 36.453 81.787 37.0516 81.787 37.6491C81.787 38.0975 81.4927 38.696 81.0518 38.9942ZM96.7873 35.8555C96.7873 35.4061 96.7873 35.1069 96.933 35.1069C97.0806 34.9587 97.3749 34.9587 97.8148 34.9587C99.4337 34.9587 100.17 36.1548 100.17 37.3518C100.17 38.5488 99.8736 38.9962 99.4337 39.2945C98.9938 39.5927 98.4033 39.7439 97.8148 39.7439C97.2263 39.7439 96.933 39.5938 96.933 39.5938C96.7873 39.5938 96.7873 39.4456 96.7873 39.1464V35.8555ZM95.7569 42.1359C95.7569 43.0327 95.6113 43.7804 95.4627 43.9305C95.317 44.2298 95.0228 44.2298 94.8742 44.2298L94.4342 44.3779V44.528H97.9634C98.109 44.528 98.109 44.3779 97.9634 44.3779L97.6691 44.2298C97.5215 44.2298 97.2273 44.2298 97.0806 43.9305C96.933 43.7804 96.7864 43.0337 96.7864 42.1359V40.4895C96.7864 40.0421 96.7864 40.0421 97.6682 40.0421C98.2567 40.0421 98.4023 40.1903 98.5499 40.4895C99.1385 41.2382 99.726 42.2841 100.02 42.8826C101.051 44.3779 101.785 44.6771 103.11 44.6771H103.844V44.3779C103.255 44.3779 102.962 44.3779 102.668 44.0786C101.639 43.1818 100.903 41.9848 99.727 40.0421C99.5794 39.892 99.5794 39.7429 99.5794 39.5928C100.316 39.4446 101.492 38.5468 101.492 37.1997C101.492 36.1538 100.903 35.4051 100.169 35.1059C99.5784 34.6565 98.6966 34.6565 97.8138 34.6565C96.6377 34.6565 95.755 34.6565 94.5789 34.8066C94.4333 34.8066 94.4333 34.9567 94.5789 34.9567H94.8732C95.3151 35.1049 95.4617 35.256 95.6093 35.4041C95.6093 35.5523 95.755 36.1528 95.755 37.0506V42.1359H95.7569ZM107.817 37.9493C107.817 37.0526 107.817 36.6022 107.669 36.454C107.523 36.3039 107.375 36.1548 107.081 36.1548L106.786 36.0046V35.8565H112.523C112.523 36.1558 112.523 37.0526 112.67 37.5009C112.67 37.5009 112.523 37.6511 112.374 37.5009C112.229 36.9024 112.082 36.455 111.346 36.3049C111.052 36.3049 110.612 36.1568 110.17 36.1568H109.434C108.994 36.1568 108.845 36.3049 108.845 36.3049V39.4466C108.845 39.7459 108.845 39.894 109.139 39.894H109.876C110.464 39.894 110.904 39.7459 111.052 39.7459C111.197 39.7459 111.346 39.5957 111.493 39.2965V38.698C111.639 38.698 111.788 38.698 111.788 38.8481V41.2402C111.788 41.3883 111.64 41.3883 111.493 41.3883L111.346 40.7898C111.346 40.4905 111.198 40.3424 111.052 40.3424C110.904 40.1923 110.463 40.1923 109.876 40.1923H109.138C108.844 40.1923 108.844 40.1923 108.844 40.6417V42.4362C108.844 43.0347 108.844 43.6322 108.992 43.9315C109.137 44.0796 109.432 44.2308 110.462 44.2308C112.081 44.2308 112.669 44.0806 113.257 42.7355H113.403C113.403 43.1829 113.108 44.2308 112.963 44.53H106.491V44.3799L107.08 44.2318C107.227 44.2318 107.521 44.0816 107.668 44.0816C107.816 43.7824 107.816 43.1848 107.816 42.4372V37.9493H107.817ZM120.904 35.8555H121.344C121.491 36.3029 121.638 37.0516 121.638 37.4999H121.344C121.198 36.9014 120.755 36.0046 119.579 36.0046C118.257 36.0046 117.962 37.0526 117.962 37.4999C117.962 38.3967 118.696 38.8471 119.138 39.1464L120.314 39.893C120.903 40.3424 121.785 41.089 121.785 42.2861C121.785 43.7814 120.609 44.6791 118.99 44.6791C117.961 44.6791 117.373 44.3799 117.079 44.2318C116.932 43.9325 116.785 43.1838 116.785 42.4372H116.931C117.225 43.1838 117.813 44.3799 119.284 44.3799C120.314 44.3799 120.903 43.6332 120.903 42.7355C120.903 42.1369 120.755 41.5394 119.727 40.9409L118.696 40.1923C117.962 39.7449 117.226 38.9962 117.226 37.9503C117.226 36.7543 118.108 35.7064 119.727 35.7064C120.168 35.7044 120.611 35.7044 120.904 35.8555ZM130.021 36.0036C132.667 36.0036 133.55 38.3967 133.55 40.4895C133.55 43.332 132.08 44.3779 130.315 44.3779C127.816 44.3779 126.934 41.8367 126.934 39.892C126.934 36.9014 128.698 36.0036 130.021 36.0036ZM130.315 35.7044C127.669 35.7044 125.758 37.6491 125.758 40.3414C125.758 42.5833 127.375 44.6771 130.315 44.6771C132.816 44.6771 134.726 42.8826 134.726 40.1913C134.726 37.7982 133.11 35.7044 130.315 35.7044ZM140.316 36.9014C140.316 36.454 140.316 36.3029 140.462 36.3029C140.462 36.1548 140.904 36.1548 141.198 36.1548C142.668 36.1548 143.257 37.2007 143.257 38.2486C143.257 39.1454 142.963 39.5938 142.668 39.893C142.226 40.1923 141.786 40.3424 141.198 40.3424C140.609 40.3424 140.462 40.1923 140.316 40.1923V36.9014ZM139.286 42.4352C139.286 43.1819 139.286 43.7804 139.14 44.0796C138.992 44.2298 138.698 44.2298 138.552 44.3789H138.257V44.529H141.345V44.3789H141.05C140.905 44.2308 140.61 44.2308 140.462 44.0796C140.316 43.7804 140.316 43.1828 140.316 42.4352V40.9399C140.316 40.6407 140.316 40.6407 141.05 40.6407C141.492 40.6407 141.639 40.7888 141.932 41.088C142.374 41.6866 142.814 42.5833 143.108 43.0327C144.139 44.3779 144.727 44.6771 145.903 44.6771H146.492V44.3779C146.05 44.3779 145.756 44.3779 145.461 44.0786C144.579 43.332 143.844 42.2841 142.815 40.6397C142.815 40.4895 142.669 40.3404 142.815 40.1903C143.403 40.0421 144.434 39.2935 144.434 38.0965C144.434 37.1997 143.845 36.6012 143.258 36.3019C142.67 36.0026 141.933 35.8545 141.199 35.8545C140.169 35.8545 139.287 35.8545 138.404 36.0026C138.258 36.0026 138.258 36.1528 138.258 36.1528H138.698C138.992 36.1528 139.14 36.3009 139.14 36.452C139.286 36.7513 139.286 37.1987 139.286 37.9473V42.4352ZM155.169 35.8555H156.051C156.196 35.8555 156.196 35.7054 156.345 35.5543H156.491C156.345 36.1548 156.345 37.2007 156.345 37.4989H156.051C156.051 37.0516 155.903 36.7523 155.756 36.6022C155.462 36.3029 154.875 36.1548 154.286 36.1548H153.404C152.962 36.1548 152.962 36.1548 152.962 36.7533V42.4362C152.962 43.1828 152.962 43.9315 153.11 44.0806C153.256 44.2308 153.55 44.2308 153.699 44.3799H154.138V44.53H150.609V44.3799L151.198 44.2318C151.492 44.2318 151.64 44.2318 151.786 44.0816C151.934 43.9335 151.934 43.1848 151.934 42.4372V36.7543C151.934 36.1558 151.934 36.1558 151.492 36.1558H150.758C150.022 36.1558 149.433 36.3039 149.139 36.6032C148.845 36.9024 148.699 37.2017 148.551 37.4999C148.551 37.4999 148.405 37.4999 148.405 37.3518C148.55 36.9024 148.845 36.0046 148.845 35.5553H148.992C148.992 35.7054 149.138 35.7054 149.287 35.8565H155.169V35.8555ZM164.139 35.8555H164.579C164.727 36.3029 164.727 37.0516 164.727 37.4999H164.579C164.285 36.9014 163.991 36.0046 162.669 36.0046C161.493 36.0046 161.199 37.0526 161.199 37.4999C161.199 38.3967 161.787 38.8471 162.375 39.1464L163.551 39.893C164.139 40.3424 164.874 41.089 164.874 42.2861C164.874 43.7814 163.845 44.6791 162.227 44.6791C161.199 44.6791 160.61 44.3799 160.317 44.2318C160.023 43.9325 159.875 43.1838 159.875 42.4372H160.169C160.317 43.1838 161.051 44.3799 162.376 44.3799C163.552 44.3799 163.993 43.6332 163.993 42.7355C163.993 42.1369 163.847 41.5394 162.964 40.9409L161.788 40.1923C161.052 39.7449 160.464 38.9962 160.464 37.9503C160.464 36.7543 161.345 35.7064 162.964 35.7064C163.258 35.7044 163.845 35.7044 164.139 35.8555Z" fill="#C8CEDD"/>
<path fill-rule="evenodd" clip-rule="evenodd" d="M1251.33 36.238C1250.02 35.5445 1249.82 33.5842 1249.85 28.8194L1249.88 21.5157L1247.41 21.5123L1247.96 20.1588H1249.88V16.7L1254.48 14.9706L1254.48 20.0433L1256.58 20.0473L1256.03 21.5457L1254.48 21.5435L1254.47 34.1831C1254.57 35.2015 1254.91 35.8004 1255.39 36.2374H1251.33V36.238ZM1206.16 5.00461C1206.51 5.98281 1207.31 6.99272 1206.74 8.12603C1206.47 9.27518 1205.4 10.2075 1204.27 10.3932C1203.09 10.5019 1201.96 10.3004 1201.09 9.57011C1200.46 6.24661 1201.79 3.17105 1204.37 1.33862L1206.16 5.00461Z" fill="#C8CEDD"/>
<path fill-rule="evenodd" clip-rule="evenodd" d="M1210.72 15.1309C1210.13 17.1422 1204.29 15.8221 1202.46 12.5218C1204.86 12.7935 1207.57 10.6271 1207.62 8.15787L1210.72 15.1309ZM1213.11 14.8705C1213.38 14.7499 1213.92 14.4782 1214.05 13.8957L1207.76 0.0339992C1207.35 -0.0203448 1207.04 -0.0594047 1206.5 0.328929L1213.11 14.8705ZM1215.94 11.8612C1218.61 7.7452 1216.36 0.988983 1210.6 0.0419244L1215.94 11.8612ZM1215.35 20.7238C1216.19 20.0049 1217.67 19.9879 1218.63 20.4498C1219.03 20.6553 1219.42 20.9299 1219.67 21.2888L1217.82 24.2177C1217.58 24.0286 1217.42 23.9437 1217.11 23.7897C1216.2 23.3872 1215.23 23.6227 1214.67 24.1316V32.6772C1214.66 34.1541 1214.91 35.502 1215.67 36.2039H1211.46C1210.58 35.5195 1210.36 34.4236 1210.28 33.4641L1210.24 22.1028C1210.28 21.1829 1210.05 20.7759 1209.69 20.2619L1214.05 20.2794C1214.4 20.5359 1214.42 20.9814 1214.61 21.3244L1215.35 20.7238ZM1220.67 23.5321C1220.63 22.4532 1220.87 21.1608 1220.17 20.2274H1224.22C1224.49 20.4328 1224.64 20.7759 1224.72 21.1008C1224.94 21.3918 1224.93 21.8028 1225.03 22.1458L1225.06 34.2527C1225.23 34.9716 1225.5 35.699 1226.02 36.264L1221.69 36.273C1220.28 34.8821 1220.74 32.5912 1220.63 30.2284L1220.67 23.5321ZM1227.07 23.6522C1227.5 22.4181 1228.87 21.8022 1229.86 21.1348C1231.38 20.5698 1233.04 19.1654 1234.74 20.3134C1236.16 21.2542 1237.4 22.3168 1238.3 23.7716C1238.51 24.3366 1238.62 24.97 1238.77 25.5695C1238.77 26.3745 1238.94 26.9734 1238.92 27.7783C1238.97 28.6518 1238.97 29.4404 1238.92 30.2957C1238.87 31.7506 1238.19 33.052 1237.07 34.0624C1235.38 35.5869 1233.26 37.3163 1230.97 36.1343C1228.92 35.1578 1226.49 33.2229 1226.64 30.5697C1226.56 28.6858 1226.48 27.0594 1226.73 25.2264C1226.83 24.696 1226.78 24.1147 1227.07 23.6522ZM1231.27 32.2142C1231.48 32.9671 1231.86 33.8915 1232.76 33.9945C1233.28 34.0121 1233.67 33.5666 1233.97 33.1895C1234.91 31.3067 1234.78 29.2513 1234.78 27.1109C1234.47 25.5191 1234.84 23.3442 1233.16 22.3677C1232.57 22.1452 1232.12 22.5568 1231.75 22.9327C1231.09 23.9431 1231.01 25.0985 1230.97 26.3835C1230.75 28.439 1230.99 30.1423 1231.27 32.2142ZM1241.92 36.2379C1240.61 35.5445 1240.41 33.5841 1240.44 28.8194L1240.47 21.5158L1237.99 21.5124L1238.55 20.1589H1240.47V16.7001L1245.06 14.9707L1245.06 20.0434L1247.17 20.0473L1246.61 21.5458L1245.06 21.5435L1245.06 34.183C1245.16 35.2014 1245.49 35.8003 1245.97 36.2373H1241.92V36.2379ZM1199.89 22.1022C1199.86 21.1801 1199.69 20.7753 1199.33 20.2613L1203.69 20.2789C1204.05 20.5353 1204.06 20.9808 1204.25 21.3239L1204.99 20.7232C1205.83 20.0043 1207.31 19.9873 1208.27 20.4493C1208.68 20.6547 1209.07 20.9293 1209.32 21.2882L1207.47 24.2171C1207.23 24.028 1207.06 23.9431 1206.76 23.7892C1205.84 23.3867 1204.87 23.6222 1204.32 24.1311V32.6767C1204.3 34.1536 1204.56 35.5014 1205.31 36.2034H1201.1C1200.23 35.519 1199.98 34.4983 1199.92 33.4635L1199.89 22.1022ZM1166.9 26.5981L1165.31 29.9125C1164.23 31.8683 1162.71 34.2685 1160.38 34.8646C1159.48 35.185 1158.68 34.8946 1157.81 34.8335L1155 39.5104C1155.21 39.7391 1155.51 39.9327 1155.8 40.0454C1160.74 41.9627 1162.73 39.8993 1167.6 28.7124L1172.2 38.6777H1178.32L1175.43 31.9521L1177.07 28.4758L1181.59 38.5238L1187.45 38.5622L1177.2 15.6381L1172.47 18.0259L1176.17 26.5811L1174.55 29.9431L1167.77 15.046L1162.79 17.6251L1166.9 26.5981ZM1185.73 30.6388C1185.85 28.9767 1186.74 27.4189 1188.25 26.5799C1189.75 25.638 1191.5 25.261 1193.05 24.4396C1193.32 24.2171 1193.66 23.9431 1193.68 23.5837C1193.69 23.1382 1193.47 22.7951 1193.09 22.6417C1190.73 22.1277 1188.78 23.6346 1187.06 25.1251C1187.28 24.028 1187.44 22.8296 1187.95 21.8028C1188.2 21.5288 1188.35 21.1518 1188.69 20.9468C1190.36 20.1073 1192.45 19.8679 1194.32 20.0043C1195.85 20.1068 1197.26 21.2197 1197.78 22.6417C1198.05 23.3097 1198.04 24.0626 1198.09 24.7481L1198.1 34.029C1198.12 34.834 1198.49 35.588 1198.96 36.2379H1194.6C1194.08 35.7579 1193.82 35.1589 1193.68 34.4061C1192.45 35.502 1189.91 37.1295 1188.39 36.05C1186.81 35.3299 1185.37 32.9156 1185.73 30.6388ZM1193.46 27.4104C1193.42 26.7679 1192.97 26.7005 1192.65 26.7005C1191.6 26.8539 1190.7 27.7432 1190.21 28.6518C1189.76 29.4658 1189.65 30.1497 1189.62 30.8607C1189.61 31.6271 1189.57 32.1961 1189.87 32.7791C1190.04 33.155 1190.41 33.3265 1190.76 33.429C1191.44 33.566 1192.06 33.3781 1192.58 33.0186C1193.81 32.3155 1193.59 30.9111 1193.61 29.6617L1193.46 27.4104ZM1258.57 34.0806C1258.79 34.3081 1258.9 34.5759 1258.9 34.8855C1258.9 35.2037 1258.79 35.4771 1258.57 35.7047C1258.35 35.9311 1258.08 36.0443 1257.77 36.0443C1257.46 36.0443 1257.19 35.9317 1256.97 35.7069C1256.87 35.6004 1256.78 35.4726 1256.72 35.3313C1256.67 35.19 1256.64 35.0383 1256.64 34.8855C1256.64 34.5747 1256.75 34.3076 1256.97 34.0806C1257.19 33.8485 1257.46 33.7336 1257.77 33.7336C1258.08 33.7336 1258.35 33.8485 1258.57 34.0806ZM1258.74 33.9028C1258.61 33.7715 1258.46 33.6677 1258.3 33.5977C1258.13 33.5277 1257.95 33.493 1257.77 33.4958C1257.41 33.4958 1257.1 33.622 1256.83 33.8728C1256.55 34.1428 1256.41 34.4796 1256.41 34.8855C1256.41 35.2767 1256.54 35.6062 1256.8 35.8739C1257.06 36.1428 1257.39 36.2764 1257.77 36.2764C1258.14 36.2764 1258.46 36.1451 1258.73 35.8841C1258.86 35.7557 1258.97 35.6006 1259.04 35.4287C1259.11 35.2568 1259.14 35.0718 1259.14 34.8855C1259.14 34.5017 1259.01 34.1745 1258.74 33.9028ZM1257.94 34.7808C1257.88 34.8219 1257.8 34.8416 1257.72 34.8374H1257.57V34.3908H1257.67C1257.77 34.3908 1257.84 34.401 1257.9 34.423C1257.98 34.4553 1258.02 34.5136 1258.02 34.598C1258.02 34.6823 1257.99 34.7429 1257.94 34.7808ZM1257.57 35.1148H1257.65L1257.74 35.1205C1257.79 35.1212 1257.83 35.1295 1257.88 35.1448C1257.9 35.154 1257.92 35.1689 1257.94 35.1884C1257.96 35.2079 1257.98 35.2315 1257.99 35.2575C1258 35.2908 1258.01 35.3537 1258.01 35.4465C1258.02 35.5394 1258.02 35.6101 1258.04 35.6599H1258.41L1258.4 35.6169C1258.39 35.5879 1258.39 35.5571 1258.39 35.5263V35.3882C1258.39 35.2314 1258.34 35.1165 1258.25 35.0435C1258.19 34.9977 1258.12 34.9675 1258.04 34.9552C1258.13 34.9472 1258.23 34.911 1258.3 34.851C1258.37 34.7933 1258.41 34.6993 1258.41 34.5702C1258.41 34.3998 1258.34 34.277 1258.21 34.2023C1258.11 34.1544 1258.01 34.1272 1257.91 34.1224C1257.8 34.1203 1257.7 34.1195 1257.59 34.1202C1257.41 34.1191 1257.27 34.1191 1257.17 34.1191V35.6605H1257.57V35.1148Z" fill="#C8CEDD"/>
<g clip-path="url(#clip2_3_64)">
<path d="M862.899 9.00002H851.344V9.98929H855.026V29.1765C855.026 34.9434 853.423 36.5672 849.863 36.5672C847.621 36.5672 847.255 34.8657 847.255 33.9847C847.255 31.8908 847.139 30.6009 845.229 30.6009C843.307 30.6005 843.084 32.5371 843.084 33.1362C843.084 35.775 845.128 37.7985 850.371 37.7985C856.626 37.7985 859.097 35.6884 859.097 28.6714V9.98229L862.899 9.98929V9.00002H862.899ZM863.676 33.3477C863.035 33.3477 862.501 33.5522 862.067 33.9939C861.623 34.4379 861.402 34.9666 861.402 35.6037C861.402 36.2404 861.627 36.7647 862.071 37.185C862.52 37.629 863.056 37.8313 863.676 37.8313C864.311 37.8313 864.844 37.629 865.302 37.185C865.742 36.7643 865.965 36.2404 865.965 35.6037C865.965 34.9574 865.742 34.4309 865.302 33.9939C864.861 33.5522 864.327 33.3477 863.676 33.3477ZM888.438 33.3477C887.801 33.3477 887.27 33.5522 886.83 33.9939C886.388 34.4379 886.177 34.9666 886.177 35.6037C886.177 36.2404 886.388 36.7647 886.83 37.185C887.293 37.629 887.819 37.8313 888.438 37.8313C889.079 37.8313 889.62 37.629 890.073 37.185C890.517 36.7643 890.736 36.2404 890.736 35.6037C890.736 34.9574 890.517 34.4309 890.073 33.9939C889.627 33.5522 889.084 33.3477 888.438 33.3477ZM879.708 24.2113H877.402V10.1138L879.494 10.0832C886.245 10.0832 887.719 12.8658 887.719 17.3682C887.719 21.899 885.063 24.2113 879.708 24.2113ZM881.256 9.00002L869.944 9.00223V9.98929H873.264V31.8838C873.264 33.6041 873.16 33.6863 872.97 34.1822C872.764 34.7437 872.298 35.1785 871.61 35.4629C871.1 35.6814 870.322 35.7942 869.293 35.8225V37.0915H881.468V35.8225C880.439 35.7942 879.647 35.6814 879.134 35.4957C878.41 35.2069 877.934 34.7861 877.703 34.2058C877.506 33.7217 877.403 33.2895 877.403 32.4174V25.2945L880.415 25.2828C889.167 25.2828 891.622 21.8238 891.622 17.1073C891.622 12.3392 890.116 9.00002 881.256 9.00002ZM926.439 34.1067C926.279 33.6038 926.201 32.9881 926.201 32.1985V9.99187H929.132V9.00002H921.988C921.887 9.25609 913.373 30.462 913.373 30.462C913.357 30.5001 913.329 30.5325 913.295 30.5551C913.26 30.5777 913.219 30.5894 913.178 30.5888C913.086 30.5888 913.006 30.5442 912.973 30.462C912.973 30.462 903.924 9.25609 903.818 9.00002L895.875 9.00702V9.99408H899.162V31.3385L899.092 33.3197C899.036 33.8436 898.871 34.3067 898.617 34.6803C898.347 35.0845 897.912 35.3926 897.341 35.5897C896.963 35.712 896.404 35.8012 895.708 35.8152V37.0911H903.782V35.8244C903.113 35.8008 902.821 35.7304 902.422 35.5963C901.846 35.4058 901.404 35.1192 901.115 34.7032C900.864 34.32 900.694 33.8642 900.638 33.3189L900.544 31.3378V12.9339H901.017C901.017 12.9339 911.239 36.8306 911.347 37.0915H912.205L921.882 13.1948H922.126V32.1989C922.126 33.0282 922.041 33.6653 921.882 34.1656C921.687 34.7437 921.276 35.1807 920.674 35.4747C920.236 35.6744 919.555 35.7897 918.665 35.8247V37.0915H929.705V35.8247C928.824 35.7824 928.135 35.6626 927.674 35.4534C927.035 35.1409 926.617 34.6896 926.439 34.1067ZM941.208 36.6729C936.781 36.6729 936.092 34.4593 936.092 27.3623C936.092 21.8776 936.437 17.758 941.208 17.758C946.359 17.758 946.38 22.0209 946.38 27.0119C946.38 34.1984 945.161 36.6729 941.208 36.6729ZM941.285 16.5104C935.392 16.5104 931.7 20.4255 931.7 27.2521C931.7 37.251 939.476 37.9138 941.151 37.9138C944.477 37.9138 950.777 35.8413 950.777 27.0642C950.777 20.2328 946.742 16.5104 941.285 16.5104ZM966.185 16.8207C962.663 16.8207 961.445 18.905 960.48 21.0272C960.48 21.0272 960.221 21.0062 960.198 21.018C960.174 21.0272 959.495 16.9927 959.495 16.9927H952.812V18.055H956.485V31.8842C956.485 33.2541 956.415 34.3233 956.067 34.8992C955.658 35.5643 954.807 35.8229 953.404 35.8229H952.812V37.0918H964.238V35.8229H963.622C962.12 35.8229 961.354 35.4961 960.955 34.8454C960.595 34.2765 960.431 33.3038 960.431 31.8846V24.7165C960.431 22.2891 962.375 19.5254 964.565 19.5254C966.853 19.5254 966.936 22.8131 969.394 21.6381C971.144 20.7991 970.754 16.8207 966.185 16.8207ZM1005.72 32.9155C1005.72 32.9837 1005.71 33.0308 1005.64 33.0728L1005.56 33.155C1003.6 34.9291 1002.11 35.5661 1001.02 35.5661C998.218 35.5661 997.797 33.2257 997.797 32.0578C997.797 28.3191 1002.91 26.4533 1005.72 26.4533V32.9155ZM1011.7 35.0374C1010.48 35.0374 1010.09 34.3558 1010 33.2184L1009.93 30.6521V22.242C1009.93 20.4255 1009.64 19.2034 1008.57 18.1367C1007.51 17.0627 1005.48 16.5104 1002.53 16.5104C999.703 16.5104 997.602 17.0414 996.267 18.0638C994.961 19.0579 994.456 19.979 994.456 21.2903C994.456 21.906 994.618 22.3359 994.961 22.6226C995.306 22.9306 995.71 23.0691 996.204 23.0691C997.339 23.0691 997.983 22.4888 998.218 20.9988C998.389 19.8872 998.634 19.2553 999.181 18.6795C999.757 18.0638 1000.67 17.7584 1001.91 17.7584C1003.33 17.7584 1004.35 18.1415 1004.92 18.9167C1005.44 19.643 1005.72 20.63 1005.72 21.8496V25.2124C1002.06 25.5506 993.414 26.2418 993.798 32.8355C993.939 35.411 996.211 37.674 999.146 37.674C1002.39 37.674 1004.44 35.827 1005.84 34.3465C1006.06 35.7448 1007.37 37.4227 1009.73 37.4227C1012.39 37.4227 1013.98 36.1184 1014.16 32.8569H1013.48C1013.3 34.2762 1012.42 35.0374 1011.7 35.0374ZM1035.06 34.9128C1035.54 35.5403 1036.26 35.7448 1037.47 35.827V37.0911H1027.95V35.8314C1028.65 35.7798 1029.19 35.6291 1029.53 35.3918C1030.01 35.0768 1030.14 34.5787 1030.26 33.9796C1030.34 33.4578 1030.37 32.6731 1030.37 31.5755V25.0053C1030.37 23.4122 1030.26 21.403 1029.73 20.3242C1029.24 19.3607 1028.44 18.8862 1026.93 18.8862C1025.26 18.8862 1023.77 19.6853 1022.95 21.1282C1022.19 22.4535 1022.21 24.5945 1022.21 26.8173V32.1189C1022.21 33.4818 1022.38 34.4173 1022.77 34.9578C1023.12 35.4677 1023.8 35.7378 1024.79 35.8177V37.0915H1014.92V35.8273C1015.67 35.792 1016.26 35.7028 1016.63 35.5429C1017.22 35.2916 1017.62 34.8708 1017.79 34.2552C1017.94 33.743 1018.03 32.9697 1018.03 31.9004V18.0498L1014.92 18.0406V17.0019L1021.14 16.9924L1021.84 20.63L1022.16 20.6252C1022.96 19.0649 1024.7 16.7503 1028.71 16.7503C1029.83 16.7503 1030.84 16.9714 1031.73 17.4153C1032.6 17.8641 1033.3 18.5457 1033.8 19.448C1034.3 20.367 1034.46 21.4973 1034.46 22.8086V31.9148C1034.46 32.9365 1034.57 34.2854 1035.06 34.9128ZM980.586 30.3375C977.989 30.3375 976.499 29.3928 976.499 24.0982C976.499 20.3688 977.804 17.5937 980.586 17.5937C983.833 17.5937 984.776 20.1223 984.776 24.023C984.776 29.6091 983.02 30.3375 980.586 30.3375ZM990.416 15.7043C989.821 15.8947 989.431 16.4187 989.224 17.3022C989.069 18.1202 988.759 18.5899 988.348 18.724C987.937 18.8508 987.234 18.8626 986.929 18.6253C985.904 17.6758 983.935 16.5126 980.485 16.5126C974.918 16.5126 972.467 20.4841 972.467 24.0982C972.467 28.3398 974.093 30.3961 977.674 31.1433C977.888 31.1904 977.888 31.4321 977.703 31.4745C974.65 32.0924 971.943 32.9877 971.943 35.8877C971.943 37.6408 972.944 38.6021 974.227 39.126C975.649 39.7019 977.646 40.0003 980.149 40.0471C982.332 40.0707 983.883 40.1507 984.896 40.2704C985.986 40.3972 986.851 40.7052 987.488 41.1705C988.148 41.6805 988.489 42.4325 988.489 43.4147C988.489 44.7588 987.779 45.8376 986.343 46.639C985.011 47.377 983.192 47.7668 980.927 47.7668C978.993 47.7668 977.4 47.5601 975.961 46.667C974.906 46.0068 974.699 44.7142 974.918 43.7788C975.118 42.8363 974.779 41.8448 973.684 41.6613C973.085 41.5578 972.333 41.8846 971.98 42.4321C971.654 42.9372 971.536 43.5411 971.536 44.2625C971.536 46.6501 973.383 47.7665 974.786 48.1846C976.939 48.8357 978.363 49 980.341 49C982.957 49 985.088 48.5958 986.608 47.8228C988.126 47.0568 989.189 46.1143 989.755 45.0333C990.352 43.9453 990.634 42.8315 990.634 41.767C990.634 40.3194 990.316 39.1444 989.706 38.2749C987.715 35.5444 984.895 35.8874 978.548 35.5889C975.493 35.5889 974.905 35.0366 974.905 34.0989C974.905 32.7147 976.038 32.1768 980.454 31.4951C984.804 30.8231 988.862 29.2203 988.862 23.9048C988.862 22.375 988.502 21.0637 988.07 20.1426C988.975 20.3401 989.811 20.3375 990.573 20.091C991.452 19.8209 992.025 19.3766 992.351 18.7609C992.683 18.1404 992.81 17.4308 992.669 16.8479C992.392 15.6247 991.49 15.3682 990.416 15.7043Z" fill="#C8CEDD"/>
</g>
<defs>
<clipPath id="clip0_3_64">
<rect width="191.816" height="30" fill="white" transform="translate(534 9)"/>
</clipPath>
<clipPath id="clip1_3_64">
<rect width="154.639" height="30" fill="white" transform="translate(275 9)"/>
</clipPath>
<clipPath id="clip2_3_64">
<rect width="194.553" height="40" fill="white" transform="translate(843 9)"/>
</clipPath>
</defs>
</svg>
